<?xml version="1.0" encoding="UTF-8"?>
<svg height="16px" viewBox="0 0 16 16" width="16px" xmlns="http://www.w3.org/2000/svg">
    <path d="m 8.007812 0.0078125 c -4.398437 0 -7.9843745 3.5898435 -7.9843745 7.9843755 c 0 4.398437 3.5859375 7.988281 7.9843745 7.988281 c 4.398438 0 7.988282 -3.585938 7.984376 -7.988281 c 0.003906 0 0.003906 -0.003907 0 -0.003907 c -0.003907 -1.199219 -0.324219 -2.367187 -0.847657 -3.441406 l 0.824219 -3.304687 c 0.085938 -0.339844 -0.011719 -0.703126 -0.261719 -0.949219 c -0.246093 -0.2500002 -0.609375 -0.3476565 -0.949219 -0.2656252 l -3.308593 0.8281252 c -1.074219 -0.523438 -2.238281 -0.839844 -3.4375 -0.8476565 z m -0.003906 1.9999995 c 1.015625 0.007813 2.011719 0.269532 2.898438 0.765626 c 0.222656 0.125 0.484375 0.160156 0.730468 0.097656 l 1.992188 -0.496094 l -0.5 1.988281 c -0.058594 0.246094 -0.023438 0.511719 0.101562 0.730469 c 0.5 0.886719 0.761719 1.886719 0.765626 2.902344 c 0 3.316406 -2.667969 5.984375 -5.984376 5.984375 c -3.316406 0 -5.984374 -2.667969 -5.984374 -5.988281 c 0 -3.3125 2.664062 -5.980469 5.980468 -5.984376 z m 0 0"/>
</svg>
