<?xml version="1.0" encoding="UTF-8"?>
<svg height="128px" viewBox="0 0 128 128" width="128px" xmlns="http://www.w3.org/2000/svg" xmlns:xlink="http://www.w3.org/1999/xlink">
    <linearGradient id="a" gradientUnits="userSpaceOnUse" x1="79.17189952818" x2="123.62797171052" y1="23.93756153712" y2="49.63287103252">
        <stop offset="0" stop-color="#3584e4"/>
        <stop offset="1" stop-color="#ed333b"/>
    </linearGradient>
    <linearGradient id="b" gradientUnits="userSpaceOnUse" x1="24.240234" x2="116.201172" y1="114.158203" y2="114.158203">
        <stop offset="0" stop-color="#9a9996"/>
        <stop offset="0.426992" stop-color="#c0bfbc"/>
        <stop offset="0.898915" stop-color="#a09f9c"/>
        <stop offset="1" stop-color="#c0bfbc"/>
    </linearGradient>
    <linearGradient id="c" gradientUnits="userSpaceOnUse" x1="106.40625" x2="111.92041" y1="46.640625" y2="46.330078">
        <stop offset="0" stop-color="#77767b"/>
        <stop offset="0.725831" stop-color="#a5a4aa"/>
        <stop offset="1" stop-color="#77767b"/>
    </linearGradient>
    <radialGradient id="d" cx="64" cy="189.223251" gradientTransform="matrix(1 0 0 1.025316 0 -178.013727)" gradientUnits="userSpaceOnUse" r="51.478443">
        <stop offset="0" stop-color="#fffef9"/>
        <stop offset="1" stop-color="#c0bfbc" stop-opacity="0"/>
    </radialGradient>
    <radialGradient id="e" cx="61.488556" cy="-281.210419" gradientTransform="matrix(1.927308 0 -0.00022952 -0.971395 -57.081676 -163.811049)" gradientUnits="userSpaceOnUse" r="47.368637">
        <stop offset="0" stop-color="#f6f5f4"/>
        <stop offset="1" stop-color="#f6f5f4" stop-opacity="0"/>
    </radialGradient>
    <radialGradient id="f" cx="62" cy="-264.373352" gradientTransform="matrix(1 0 0 -0.971395 0 -164.811049)" gradientUnits="userSpaceOnUse" r="47.368637">
        <stop offset="0" stop-color="#fffefb"/>
        <stop offset="1" stop-color="#cdccc9"/>
    </radialGradient>
    <path d="m 14.613281 90.753906 c -7.941406 -16.546875 -7.589843 -36.523437 4.769531 -54.449218 c 12.164063 -17.640626 38.074219 -30.136719 63.011719 -19.019532 c 29.300781 13.0625 31.796875 38.894532 31.957031 51.550782 c 0.03125 2.625 2.125 4.757812 4.75 4.765624 c 2.59375 0.007813 4.757813 -2.113281 4.734376 -4.738281 c -0.117188 -13.121093 -2.457032 -28.6875 -17.589844 -43.667969 c -18.683594 -19.425781 -50.839844 -24.179687 -74.035156 -10.167968 c -20.335938 11.773437 -30.292969 36.207031 -25.671876 59.433594 c 1.164063 6.183593 3.378907 12.214843 6.492188 17.722656 c 6.96875 12.324218 7.722656 11.359375 1.582031 -1.429688 z m 0 0" fill="url(#a)"/>
    <path d="m 113.34375 65.542969 c 0 29.148437 -23.046875 52.78125 -51.476562 52.78125 c -28.429688 0 -51.476563 -23.632813 -51.476563 -52.78125 c 0 -29.152344 23.046875 -52.78125 51.476563 -52.78125 c 28.429687 0 51.476562 23.628906 51.476562 52.78125 z m 0 0" fill="url(#b)"/>
    <path d="m 110.199219 32.570312 l 1.449219 19.519532 l -11.257813 -11.328125 z m 0 0" fill="url(#c)"/>
    <path d="m 113.34375 65.542969 c 0 29.148437 -23.046875 52.78125 -51.476562 52.78125 c -28.429688 0 -51.476563 -23.632813 -51.476563 -52.78125 c 0 -29.152344 23.046875 -52.78125 51.476563 -52.78125 c 28.429687 0 51.476562 23.628906 51.476562 52.78125 z m 0 0" fill="url(#d)"/>
    <path d="m 61.488281 17.328125 c -25.410156 0 -46.011719 20.601563 -46.011719 46.015625 c 0 25.410156 20.601563 46.011719 46.011719 46.011719 c 25.414063 0 46.015625 -20.601563 46.019531 -46.011719 c -0.007812 -6.632812 -1.441406 -13.175781 -4.207031 -19.191406 c -0.277343 -0.609375 -0.15625 -1.496094 0.289063 -1.996094 l 6.257812 -6.953125 c 0.410156 -0.453125 0.484375 -1.117187 0.183594 -1.648437 c -0.296875 -0.535157 -0.902344 -0.816407 -1.503906 -0.707032 l -9.710938 1.804688 c -0.660156 0.125 -1.527344 -0.203125 -1.953125 -0.71875 c -8.722656 -10.5 -21.679687 -16.601563 -35.375 -16.605469 z m 0 0" fill="url(#e)"/>
    <path d="m 61.488281 16.328125 c -25.410156 0 -46.011719 20.601563 -46.011719 46.015625 c 0 25.410156 20.601563 46.011719 46.011719 46.011719 c 25.414063 0 46.015625 -20.601563 46.019531 -46.011719 c -0.007812 -6.632812 -1.441406 -13.175781 -4.207031 -19.191406 c -0.277343 -0.609375 -0.15625 -1.496094 0.289063 -1.996094 l 6.257812 -6.953125 c 0.410156 -0.453125 0.484375 -1.117187 0.183594 -1.648437 c -0.296875 -0.535157 -0.902344 -0.816407 -1.503906 -0.707032 l -9.710938 1.804688 c -0.660156 0.125 -1.527344 -0.203125 -1.953125 -0.71875 c -8.722656 -10.5 -21.679687 -16.601563 -35.375 -16.605469 z m 0 0" fill="url(#f)"/>
</svg>
